<svg xmlns="http://www.w3.org/2000/svg" version="1.1" width="512" height="512" x="0" y="0" viewBox="0 0 682.667 682.667"
     style="enable-background:new 0 0 512 512" xml:space="preserve" class=""><g><defs><clipPath id="a" clipPathUnits="userSpaceOnUse"><path d="M0 512h512V0H0Z" fill="#000000" opacity="1" data-original="#000000"></path></clipPath></defs><g clip-path="url(#a)" transform="matrix(1.33333 0 0 -1.33333 0 682.667)"><path d="M0 0c34.383 42.181 55.01 96.018 55.01 154.68 0 135.309-109.691 245-245 245-135.31 0-245-109.691-245-245 0-58.662 20.627-112.499 55.01-154.68z" style="fill-opacity:1;fill-rule:nonzero;stroke:none" transform="translate(445.99 90.32)" fill="#73c3f9" data-original="#73c3f9" class=""></path><path d="M0 0v-379.68C-44.92-434.8-113.35-470-190-470c-40.56 0-78.81 9.85-112.5 27.3-29.98 15.52-56.35 37.06-77.5 63.02V0c0 11.05 8.95 20 20 20h340C-8.95 20 0 11.05 0 0" style="fill-opacity:1;fill-rule:nonzero;stroke:none" transform="translate(446 470)" fill="#deeeff" data-original="#deeeff" class=""></path><path d="M0 0v-462.7c-29.98 15.52-56.35 37.06-77.5 63.02V-20c0 11.05 8.95 20 20 20z" style="fill-opacity:1;fill-rule:nonzero;stroke:none" transform="translate(143.5 490)" fill="#d3dcfb" data-original="#d3dcfb" class=""></path><path d="M0 0h130" style="stroke-width:15;stroke-linecap:round;stroke-linejoin:round;stroke-miterlimit:10;stroke-dasharray:none;stroke-opacity:1" transform="translate(218.5 382)" fill="none" stroke="#bec8f7" stroke-width="15" stroke-linecap="round" stroke-linejoin="round" stroke-miterlimit="10" stroke-dasharray="none" stroke-opacity="" data-original="#bec8f7" class=""></path><path d="M0 0h187.5" style="stroke-width:15;stroke-linecap:round;stroke-linejoin:round;stroke-miterlimit:10;stroke-dasharray:none;stroke-opacity:1" transform="translate(218.5 342)" fill="none" stroke="#bec8f7" stroke-width="15" stroke-linecap="round" stroke-linejoin="round" stroke-miterlimit="10" stroke-dasharray="none" stroke-opacity="" data-original="#bec8f7" class=""></path><path d="M0 0h-40c-5.523 0-10 4.478-10 10v40c0 5.522 4.477 10 10 10H0c5.523 0 10-4.478 10-10V10C10 4.478 5.523 0 0 0Z" style="stroke-width:15;stroke-linecap:round;stroke-linejoin:round;stroke-miterlimit:10;stroke-dasharray:none;stroke-opacity:1" transform="translate(163.5 332)" fill="none" stroke="#bec8f7" stroke-width="15" stroke-linecap="round" stroke-linejoin="round" stroke-miterlimit="10" stroke-dasharray="none" stroke-opacity="" data-original="#bec8f7" class=""></path><path d="M0 0h130" style="stroke-width:15;stroke-linecap:round;stroke-linejoin:round;stroke-miterlimit:10;stroke-dasharray:none;stroke-opacity:1" transform="translate(218.5 282)" fill="none" stroke="#bec8f7" stroke-width="15" stroke-linecap="round" stroke-linejoin="round" stroke-miterlimit="10" stroke-dasharray="none" stroke-opacity="" data-original="#bec8f7" class=""></path><path d="M0 0h187.5" style="stroke-width:15;stroke-linecap:round;stroke-linejoin:round;stroke-miterlimit:10;stroke-dasharray:none;stroke-opacity:1" transform="translate(218.5 242)" fill="none" stroke="#bec8f7" stroke-width="15" stroke-linecap="round" stroke-linejoin="round" stroke-miterlimit="10" stroke-dasharray="none" stroke-opacity="" data-original="#bec8f7" class=""></path><path d="M0 0h-40c-5.523 0-10 4.478-10 10v40c0 5.522 4.477 10 10 10H0c5.523 0 10-4.478 10-10V10C10 4.478 5.523 0 0 0Z" style="stroke-width:15;stroke-linecap:round;stroke-linejoin:round;stroke-miterlimit:10;stroke-dasharray:none;stroke-opacity:1" transform="translate(163.5 232)" fill="none" stroke="#bec8f7" stroke-width="15" stroke-linecap="round" stroke-linejoin="round" stroke-miterlimit="10" stroke-dasharray="none" stroke-opacity="" data-original="#bec8f7" class=""></path><path d="M0 0h130" style="stroke-width:15;stroke-linecap:round;stroke-linejoin:round;stroke-miterlimit:10;stroke-dasharray:none;stroke-opacity:1" transform="translate(218.5 182)" fill="none" stroke="#bec8f7" stroke-width="15" stroke-linecap="round" stroke-linejoin="round" stroke-miterlimit="10" stroke-dasharray="none" stroke-opacity="" data-original="#bec8f7" class=""></path><path d="M0 0h187.5" style="stroke-width:15;stroke-linecap:round;stroke-linejoin:round;stroke-miterlimit:10;stroke-dasharray:none;stroke-opacity:1" transform="translate(218.5 142)" fill="none" stroke="#bec8f7" stroke-width="15" stroke-linecap="round" stroke-linejoin="round" stroke-miterlimit="10" stroke-dasharray="none" stroke-opacity="" data-original="#bec8f7" class=""></path><path d="M0 0h-40c-5.523 0-10 4.478-10 10v40c0 5.522 4.477 10 10 10H0c5.523 0 10-4.478 10-10V10C10 4.478 5.523 0 0 0Z" style="stroke-width:15;stroke-linecap:round;stroke-linejoin:round;stroke-miterlimit:10;stroke-dasharray:none;stroke-opacity:1" transform="translate(163.5 132)" fill="none" stroke="#bec8f7" stroke-width="15" stroke-linecap="round" stroke-linejoin="round" stroke-miterlimit="10" stroke-dasharray="none" stroke-opacity="" data-original="#bec8f7" class=""></path><path d="M0 0h-130a7.5 7.5 0 0 0-7.5 7.5A7.5 7.5 0 0 0-130 15H0a7.5 7.5 0 0 0 7.5-7.5A7.5 7.5 0 0 0 0 0" style="fill-opacity:1;fill-rule:nonzero;stroke:none" transform="translate(348.5 74.5)" fill="#bec8f7" data-original="#bec8f7"></path><path d="M0 0h-185.166a7.5 7.5 0 0 1-7.5-7.5 7.5 7.5 0 0 1 7.5-7.5h162.901A245.45 245.45 0 0 1 0 0" style="fill-opacity:1;fill-rule:nonzero;stroke:none" transform="translate(403.666 49.5)" fill="#bec8f7" data-original="#bec8f7"></path><path d="M0 0c0-1.379-1.122-2.5-2.5-2.5h-40A2.503 2.503 0 0 0-45 0v40c0 1.379 1.122 2.5 2.5 2.5h40c1.378 0 2.5-1.121 2.5-2.5Zm-2.5 57.5h-40C-52.149 57.5-60 49.649-60 40V9.289A244.983 244.983 0 0 1-16.902-17.5H-2.5C7.149-17.5 15-9.649 15 0v40c0 9.649-7.851 17.5-17.5 17.5" style="fill-opacity:1;fill-rule:nonzero;stroke:none" transform="translate(166 42)" fill="#bec8f7" data-original="#bec8f7"></path><path d="m0 0 162.214 162.214c11.66 11.659 12.019 30.653.46 42.413-.156.159-.314.316-.473.473-11.76 11.559-30.754 11.2-42.413-.46L-42.426 42.426Z" style="fill-opacity:1;fill-rule:nonzero;stroke:none" transform="translate(329.846 210.866)" fill="#ffdd40" data-original="#ffdd40"></path><path d="m0 0-71.513-71.514 42.426-42.425 71.512 71.511C30.709-54.141 11.716-54.14.002-42.425-11.713-30.71-11.714-11.716 0 0" style="fill-opacity:1;fill-rule:nonzero;stroke:none" transform="translate(358.933 324.806)" fill="#ffc839" data-original="#ffc839"></path><path d="M0 0a38.726 38.726 0 0 1-14.142 14.142l-182.684-182.684 14.142-14.143z" style="fill-opacity:1;fill-rule:nonzero;stroke:none" transform="translate(498.388 407.692)" fill="#ffc839" data-original="#ffc839"></path><path d="M0 0a29.928 29.928 0 0 0-5.859 8.283L-57.373-43.23l14.142-14.143L8.283-5.859A29.928 29.928 0 0 0 0 0" style="fill-opacity:1;fill-rule:nonzero;stroke:none" transform="translate(358.935 282.38)" fill="#ffb332" data-original="#ffb332"></path><path d="m0 0-64.315-33.229c-6.302-3.256-13.119 3.387-10.026 9.77l31.915 65.886C-17.972 45.103 2.676 24.454 0 0" style="fill-opacity:1;fill-rule:nonzero;stroke:none" transform="translate(329.846 210.866)" fill="#fbb989" data-original="#fbb989"></path><path d="m0 0 29.763 15.377A29.443 29.443 0 0 1 6.002 40.126l-1.214.226-14.814-30.581C-13.118 3.388-6.301-3.256 0 0" style="fill-opacity:1;fill-rule:nonzero;stroke:none" transform="translate(265.53 177.637)" fill="#6c5475" data-original="#6c5475"></path><path d="M0 0c11.046 0 20-8.954 20-20v-40c0-11.046-8.954-20-20-20s-20 8.954-20 20v40C-20-8.954-11.046 0 0 0" style="fill-opacity:1;fill-rule:nonzero;stroke:none" transform="translate(143.5 512)" fill="#6c5475" data-original="#6c5475"></path><path d="M0 0c-11.046 0-20 8.954-20 20v-40c0-11.046 8.954-20 20-20s20 8.954 20 20v40C20 8.954 11.046 0 0 0" style="fill-opacity:1;fill-rule:nonzero;stroke:none" transform="translate(143.5 472)" fill="#543e5b" data-original="#543e5b"></path><path d="M0 0c11.046 0 20-8.954 20-20v-40c0-11.046-8.954-20-20-20s-20 8.954-20 20v40C-20-8.954-11.046 0 0 0" style="fill-opacity:1;fill-rule:nonzero;stroke:none" transform="translate(218.5 512)" fill="#6c5475" data-original="#6c5475"></path><path d="M0 0c-11.046 0-20 8.954-20 20v-40c0-11.046 8.954-20 20-20s20 8.954 20 20v40C20 8.954 11.046 0 0 0" style="fill-opacity:1;fill-rule:nonzero;stroke:none" transform="translate(218.5 472)" fill="#543e5b" data-original="#543e5b"></path><path d="M0 0c11.046 0 20-8.954 20-20v-40c0-11.046-8.954-20-20-20s-20 8.954-20 20v40C-20-8.954-11.046 0 0 0" style="fill-opacity:1;fill-rule:nonzero;stroke:none" transform="translate(293.5 512)" fill="#6c5475" data-original="#6c5475"></path><path d="M0 0c11.046 0 20-8.954 20-20v-40c0-11.046-8.954-20-20-20s-20 8.954-20 20v40C-20-8.954-11.046 0 0 0" style="fill-opacity:1;fill-rule:nonzero;stroke:none" transform="translate(368.5 512)" fill="#6c5475" data-original="#6c5475"></path><path d="m0 0-34.58-34.58-15 15" style="stroke-width:15;stroke-linecap:round;stroke-linejoin:round;stroke-miterlimit:10;stroke-dasharray:none;stroke-opacity:1" transform="translate(183.5 387)" fill="none" stroke="#ff7186" stroke-width="15" stroke-linecap="round" stroke-linejoin="round" stroke-miterlimit="10" stroke-dasharray="none" stroke-opacity="" data-original="#ff7186"></path><path d="m0 0-34.58-34.58-15 15" style="stroke-width:15;stroke-linecap:round;stroke-linejoin:round;stroke-miterlimit:10;stroke-dasharray:none;stroke-opacity:1" transform="translate(183.5 287)" fill="none" stroke="#ff7186" stroke-width="15" stroke-linecap="round" stroke-linejoin="round" stroke-miterlimit="10" stroke-dasharray="none" stroke-opacity="" data-original="#ff7186"></path><path d="m0 0-34.58-34.58-15 15" style="stroke-width:15;stroke-linecap:round;stroke-linejoin:round;stroke-miterlimit:10;stroke-dasharray:none;stroke-opacity:1" transform="translate(183.5 187)" fill="none" stroke="#ff7186" stroke-width="15" stroke-linecap="round" stroke-linejoin="round" stroke-miterlimit="10" stroke-dasharray="none" stroke-opacity="" data-original="#ff7186"></path><path d="M0 0c-11.046 0-20 8.954-20 20v-40c0-11.046 8.954-20 20-20s20 8.954 20 20v40C20 8.954 11.046 0 0 0" style="fill-opacity:1;fill-rule:nonzero;stroke:none" transform="translate(293.5 472)" fill="#543e5b" data-original="#543e5b"></path><path d="M0 0c-11.046 0-20 8.954-20 20v-40c0-11.046 8.954-20 20-20s20 8.954 20 20v40C20 8.954 11.046 0 0 0" style="fill-opacity:1;fill-rule:nonzero;stroke:none" transform="translate(368.5 472)" fill="#543e5b" data-original="#543e5b"></path></g></g></svg>